<svg width="827" height="508" viewBox="0 0 827 508" fill="none" xmlns="http://www.w3.org/2000/svg">
<path d="M58.116 135.69V13.02L2.436 30.594L21.402 39.294V135.69L10.266 147H69.252L58.116 135.69ZM126.478 65.742C112.21 65.742 97.5936 70.614 86.8056 78.27L90.2856 50.256H163.366V16.5H89.2416L82.2816 84.012C92.7216 77.4 103.162 73.92 112.036 73.92C126.13 73.92 135.7 87.144 135.526 106.284C135.526 128.208 126.13 143.172 112.558 143.172C108.73 143.172 104.032 142.302 102.292 141.258C93.2436 135.864 103.162 103.326 81.9336 103.326C74.1036 103.326 69.2316 108.372 69.2316 116.55C69.2316 132.906 104.554 149.088 123.172 149.088C152.752 149.088 172.936 131.514 172.936 106.11C172.936 83.142 154.144 65.742 126.478 65.742ZM180.717 80.706C180.717 118.29 205.947 149.088 238.137 149.088C270.153 149.088 295.383 118.29 295.383 80.706C295.383 43.47 270.153 13.02 238.137 13.02C205.947 13.02 180.717 43.47 180.717 80.706ZM218.997 80.706C218.997 39.12 225.783 16.674 238.137 16.674C250.491 16.674 257.103 39.12 257.103 80.706C257.103 122.814 250.491 145.434 238.137 145.434C225.783 145.434 218.997 122.814 218.997 80.706ZM480.538 134.298L426.946 14.586L383.794 18.24L395.452 38.076L354.214 134.472L336.64 147H378.226L359.434 134.646L373.354 101.412H424.336L439.474 135.516L422.944 147H494.11L480.538 134.298ZM375.094 97.41L396.67 46.08H399.454L422.422 97.41H375.094ZM627.588 16.5H592.092L607.404 28.68V88.188H604.794L538.848 14.586L489.432 18.066L504.222 33.378V134.82L488.91 147H524.406L509.094 134.82V41.382H511.53L612.276 154.134V28.68L627.588 16.5ZM627.603 93.06L633.867 140.04V143.52C645.873 146.826 664.665 149.088 679.281 149.088C708.339 149.088 727.653 130.992 727.653 106.458C727.653 57.738 653.529 66.96 653.529 35.988C653.529 24.852 662.229 17.022 674.757 17.022C691.983 17.022 708.687 34.944 724.869 64.176L719.301 24.852V21.372C706.425 15.63 693.549 13.02 680.325 13.02C651.093 13.02 628.995 31.29 628.995 56.346C628.995 103.674 702.945 92.712 702.945 127.338C702.945 137.778 694.941 145.086 683.283 145.086C661.011 145.086 641.523 123.336 627.603 93.06Z" fill="white"/>
<path d="M367.508 189.765H310.088L319.136 201.945V308.085L310.088 320.265H367.508C413.618 320.265 447.2 291.729 447.2 253.797C447.2 217.257 413.618 189.765 367.508 189.765ZM365.246 316.437H355.85V193.593H365.42C390.476 193.593 407.876 218.301 407.876 253.797C407.876 290.685 390.476 316.437 365.246 316.437ZM535.824 316.437H498.414V255.015H517.206L534.78 281.289V225.087L517.206 251.187H498.414V193.593H530.43L564.534 234.309L559.836 193.245V189.765H452.652L461.7 201.945V308.085L452.652 320.265H565.578V316.785L569.58 270.849L535.824 316.437Z" fill="white"/>
<circle cx="670" cy="254" r="71" fill="white"/>
<path d="M638.439 265.703C640.028 265.703 640.875 264.644 640.875 262.843C640.875 261.149 639.71 260.196 637.91 260.196C636.533 260.196 635.58 261.043 635.58 262.737C635.58 264.644 636.851 265.703 638.439 265.703ZM646.277 270.998C643.735 270.998 638.334 270.68 633.25 269.939C631.767 269.727 630.814 267.821 630.814 256.277C630.814 252.676 631.026 249.181 631.873 245.898C632.509 243.356 633.144 241.874 634.945 241.874C639.181 241.874 643.523 242.085 646.594 242.403C645.112 244.098 644.688 249.393 644.688 255.536C644.688 265.067 645.323 269.198 646.277 270.998ZM659.303 273.646C661.951 273.646 664.916 272.904 667.458 271.951C668.835 273.752 671.588 275.446 673.706 275.446C676.46 275.446 679.955 272.693 681.12 269.515C684.191 268.88 686.839 266.656 687.368 263.585C689.91 262.843 692.24 260.09 692.24 256.912C692.24 256.065 692.028 255.112 691.711 254.159C692.664 253.418 693.299 252.358 693.511 250.982C699.971 251.935 703.89 252.358 705.584 252.358C711.198 252.358 714.375 248.334 714.375 244.415C714.375 239.438 711.621 237.002 706.855 236.155C682.497 231.918 678.472 231.812 674.977 231.812C671.377 231.812 663.434 235.307 650.407 240.391C649.03 238.273 645.535 237.32 634.733 237.32C630.179 237.32 628.272 239.756 626.684 245.686C625.942 248.652 625.625 252.041 625.625 256.383C625.625 272.163 628.272 274.387 633.038 275.128C636.321 275.552 645.747 276.188 649.136 276.188C650.725 276.188 651.36 274.917 651.89 272.904C654.333 273.377 656.815 273.625 659.303 273.646ZM673.495 271.951C672.436 271.951 671.165 271.316 670.529 270.68C671.482 270.151 672.33 269.727 672.965 269.409C673.495 270.151 673.706 270.469 673.706 270.469L673.812 270.257C674.13 265.067 671.059 261.361 667.246 262.631L667.14 262.843C668.411 264.22 669.47 265.385 670.317 266.338C666.823 267.609 662.586 269.198 659.091 269.198C656.02 269.198 652.101 268.774 649.454 268.35C649.136 265.915 648.712 261.466 648.712 255.43C648.712 251.935 648.924 247.275 650.089 245.686C663.751 240.073 671.694 236.79 674.977 236.79C678.26 236.79 682.073 237.002 706.749 241.238C708.444 241.556 709.397 242.615 709.397 244.415C709.397 246.11 707.914 247.275 705.584 247.275C703.149 247.275 696.688 246.851 685.039 245.369C680.59 241.344 678.79 240.92 676.672 240.92C675.507 240.92 672.647 241.768 670.212 244.415L670.529 244.627C672.224 243.886 674.342 243.568 675.083 243.568C676.566 243.568 678.049 243.78 683.238 249.181C686.309 252.676 688.216 255.324 688.216 257.76C688.216 258.607 687.58 259.454 686.733 259.878C685.78 257.654 683.768 254.9 681.438 252.358C678.26 248.969 675.825 246.745 673.283 246.745C671.694 246.745 669.47 248.228 668.411 250.24L668.623 250.558C670.317 249.817 671.165 249.817 671.694 249.817C674.024 249.817 675.931 251.935 678.26 254.371C681.438 257.972 683.662 261.572 683.662 263.585C683.662 264.538 682.709 265.279 681.438 265.703C680.59 263.267 678.26 259.348 676.036 257.23C674.024 255.324 672.647 254.053 670.953 254.053C669.894 254.053 668.093 255.112 666.928 256.807L667.034 257.124C667.726 256.937 668.437 256.831 669.153 256.807C670.847 256.807 671.694 257.654 673.283 259.242C677.096 263.161 677.731 267.185 677.731 268.244C677.731 270.257 675.189 271.951 673.495 271.951Z" fill="#222222"/>
<path d="M92.0534 488.482H58.1234V373.468L68.5634 362.158H12.3614L21.4094 373.468V481.348L12.3614 492.658H122.503V489.178L127.375 437.674L92.0534 488.482ZM140.865 373.468V481.348L131.817 492.658H186.627L177.579 481.348V373.468L186.627 362.158H131.817L140.865 373.468ZM317.973 457.684C317.799 440.458 298.833 428.626 267.861 425.668V423.232C297.267 420.448 312.753 409.486 312.753 393.826C312.753 375.208 288.219 362.158 252.723 362.158H190.779L199.827 374.338V480.478L190.779 492.658H253.419C292.917 492.658 318.147 479.086 317.973 457.684ZM250.113 365.986C265.077 365.986 275.343 377.296 275.343 393.652C275.343 410.878 265.773 422.71 252.201 422.71H236.541V365.986H250.113ZM251.679 488.83H236.541V426.538H252.201C270.819 426.538 279.867 441.85 279.867 457.162C279.867 472.996 270.471 488.83 251.679 488.83ZM404.621 488.83H367.211V427.408H386.003L403.577 453.682V397.48L386.003 423.58H367.211V365.986H399.227L433.331 406.702L428.633 365.638V362.158H321.449L330.497 374.338V480.478L321.449 492.658H434.375V489.178L438.377 443.242L404.621 488.83ZM535.155 492.658H579.699L529.239 426.886V423.928C549.249 418.186 562.821 406.876 562.821 393.652C562.821 375.556 540.201 362.158 507.837 362.158H443.283L452.331 374.338V481.348L443.283 492.658H498.093L489.045 481.348V429.148L535.155 492.658ZM502.269 365.986C515.841 365.986 525.411 377.818 525.411 394.696C525.411 412.444 514.449 424.798 498.789 424.798H489.045V365.986H502.269ZM664.912 365.986L701.974 410.704L695.362 365.638V362.158H575.476V365.638L568.864 410.704L605.752 365.986H617.062V481.348L606.622 492.658H664.216L653.776 481.348V365.986H664.912ZM763.564 317.962L753.472 355.024L802.54 317.962H763.564ZM789.664 488.83H752.254V427.408H771.046L788.62 453.682V397.48L771.046 423.58H752.254V365.986H784.27L818.374 406.702L813.676 365.638V362.158H706.492L715.54 374.338V480.478L706.492 492.658H819.418V489.178L823.42 443.242L789.664 488.83Z" fill="white"/>
</svg>
